<mxfile host="app.diagrams.net" modified="2023-06-06T13:28:31.995Z" agent="Mozilla/5.0 (Windows NT 10.0; Win64; x64) AppleWebKit/537.36 (KHTML, like Gecko) Chrome/108.0.0.0 YaBrowser/23.1.2.931 (corp) Yowser/2.5 Safari/537.36" etag="SJON6n-lVWwZ3LJDMvdM" version="21.3.7" type="github">
  <diagram name="Страница 1" id="1hpVTG3tmX8mUanP7hNh">
    <mxGraphModel dx="1144" dy="469" grid="1" gridSize="10" guides="1" tooltips="1" connect="1" arrows="1" fold="1" page="1" pageScale="1" pageWidth="827" pageHeight="1169" math="0" shadow="0">
      <root>
        <mxCell id="0" />
        <mxCell id="1" parent="0" />
        <mxCell id="BszqWpOFq4eaZOkGthAI-3" value="UNICODE" style="ellipse;whiteSpace=wrap;html=1;" vertex="1" parent="1">
          <mxGeometry x="360" y="640" width="80" height="80" as="geometry" />
        </mxCell>
        <mxCell id="BszqWpOFq4eaZOkGthAI-4" value="ASCII" style="ellipse;whiteSpace=wrap;html=1;" vertex="1" parent="1">
          <mxGeometry x="440" y="640" width="80" height="80" as="geometry" />
        </mxCell>
        <mxCell id="BszqWpOFq4eaZOkGthAI-6" value="Скрытая атака (Steganography-based)" style="rounded=1;whiteSpace=wrap;html=1;" vertex="1" parent="1">
          <mxGeometry x="320" y="600" width="240" height="40" as="geometry" />
        </mxCell>
        <mxCell id="BszqWpOFq4eaZOkGthAI-9" value="Xiaoyi Chen et. al.,&amp;nbsp;BadNL: Backdoor Attacks against NLP Models with Semantic-preserving Improvements" style="text;html=1;strokeColor=default;fillColor=none;align=center;verticalAlign=middle;whiteSpace=wrap;rounded=0;dashed=1;" vertex="1" parent="1">
          <mxGeometry x="320" y="720" width="240" height="80" as="geometry" />
        </mxCell>
      </root>
    </mxGraphModel>
  </diagram>
</mxfile>
